<svg width="48" height="48" viewBox="0 0 48 48" fill="none" xmlns="http://www.w3.org/2000/svg">
<path d="M40.1 22H7.9C6.85066 22 6 22.5671 6 23.2667V23.4C6 24.0996 6.85066 24.6667 7.9 24.6667H40.1C41.1493 24.6667 42 24.0996 42 23.4V23.2667C42 22.5671 41.1493 22 40.1 22Z" fill="#FEFEFE" fill-opacity="0.8"/>
<path d="M40.1 32H7.9C6.85066 32 6 32.5671 6 33.2667V33.4C6 34.0996 6.85066 34.6667 7.9 34.6667H40.1C41.1493 34.6667 42 34.0996 42 33.4V33.2667C42 32.5671 41.1493 32 40.1 32Z" fill="#FEFEFE" fill-opacity="0.8"/>
<path d="M40.1 12H7.9C6.85066 12 6 12.5671 6 13.2667V13.4C6 14.0996 6.85066 14.6667 7.9 14.6667H40.1C41.1493 14.6667 42 14.0996 42 13.4V13.2667C42 12.5671 41.1493 12 40.1 12Z" fill="#FEFEFE" fill-opacity="0.8"/>
</svg>
