<svg width="29" height="29" viewBox="0 0 29 29" fill="none" xmlns="http://www.w3.org/2000/svg">
<path d="M4.11455 0.65607C3.39244 -0.094341 2.22169 -0.094341 1.49958 0.65607C0.777484 1.4065 0.777484 2.62316 1.49958 3.37359L12.1774 14.4701L1.49969 25.5666C0.777595 26.3169 0.777595 27.5337 1.49969 28.284C2.2218 29.0344 3.39255 29.0344 4.11464 28.284L14.7923 17.1876L25.4701 28.284C26.1921 29.0344 27.3629 29.0344 28.085 28.284C28.807 27.5337 28.807 26.3169 28.085 25.5666L17.4072 14.4701L28.0852 3.37359C28.8072 2.62316 28.8072 1.4065 28.0852 0.65607C27.3631 -0.094341 26.1923 -0.094341 25.4702 0.65607L14.7923 11.7526L4.11455 0.65607Z" fill="white" fill-opacity="0.8"/>
</svg>
